<svg xmlns="http://www.w3.org/2000/svg" width="400" height="400"><g fill-rule="evenodd"><path d="M185.9.4a185.4 185.4 0 0 0-50.4 10c-2.4.6-9.6 3.3-12.5 4.6l-6.9 3c-2.3 1-4.1 1.8-4.1 2 0 .2-.6.5-1.3.8a58.3 58.3 0 0 0-12 6.3 37.7 37.7 0 0 0-4.8 2.9 21 21 0 0 1-3.2 2c-1.3.7-3 1.8-3.6 2.5a49.2 49.2 0 0 0-7.6 5.4 94.4 94.4 0 0 1-4.7 3.5c-.4.2-1.5 1.2-2.6 2.2a99.7 99.7 0 0 0-13.8 12.9 82.6 82.6 0 0 0-12.3 13.3c-.8.9-1.9 2-2.3 2.7A113.9 113.9 0 0 0 34.4 87c-.9 1-1.7 2.2-1.8 2.6l-2.2 3.7-3.7 6c-.9 1.8-2 3.5-2.2 3.8-.3.4-1.4 2.4-2.4 4.6L20 112c-.3.2-2.7 5.7-4 9.1a91.3 91.3 0 0 0-6 15.3c-.5.4-3.5 11.2-4.4 16.3a80.8 80.8 0 0 0-3 12.9C2 170 .7 181.8.4 187.9a172 172 0 0 0 1 33.5 139.4 139.4 0 0 0 3.8 22.2c0 .8 1.2 5.8 2.8 11.6l1.4 5.5c.1.7.4 1.3.6 1.3.1 0 .6 1 1 2.1a35 35 0 0 0 4.2 10.9 78.4 78.4 0 0 0 5.9 13.6l2.4 4.8c1 1.5 2.6 4.6 3.8 6.7a20 20 0 0 0 2.6 4.2c.3.1.5.4.5.6 0 .2.6 1.3 1.4 2.5.8 1.2 1.4 2.4 1.4 2.6 0 .2.5.8 1.1 1.5.6.6 1.5 1.7 2 2.5.9 1.7 3.3 4.9 4 5.3a38.8 38.8 0 0 0 5.6 7.4l2.3 2.9c.4.6 2 2.3 7.6 8.2 3.8 4 3.1 3.2 11.7 11.5 1.4 1.3 2.6 2.3 2.8 2.3.2 0 1.3.9 2.5 2l2.3 2 5.3 4c1.4 1.2 3.5 2.7 5.3 3.7 1 .6 2 1.4 2.2 1.7.2.3 1 .9 1.7 1.3l3.8 2.1 2.8 1.8c.2.3 2 1.4 4 2.4s3.8 2 4 2.3a37 37 0 0 0 5 2.6 72 72 0 0 0 14 6.3l3.4 1.6 6.4 2.4c3.3 1 6 2 6.2 2.2a235.6 235.6 0 0 0 20.6 5.2 785.9 785.9 0 0 1 5.6 1.2c16.8 3 43 3.5 60.6 1.2a108.7 108.7 0 0 0 15.6-3 140.8 140.8 0 0 0 18.5-5 102.5 102.5 0 0 0 14.8-5.4 40.1 40.1 0 0 0 10.4-4.6c.7 0 8.6-3.8 9.1-4.4l5.3-3c2-1 3.8-2 4.2-2.5l4-2.5 3.3-2c0-.2 1.6-1.3 3.5-2.5a20.3 20.3 0 0 0 5-3.9c.5 0 4.7-3.2 4.7-3.7a38.5 38.5 0 0 0 7.6-6.3 198 198 0 0 0 23-24.3c.7-.2 3.8-4.3 3.8-4.9a20.3 20.3 0 0 0 3.9-5l2.4-3.4c.2 0 1.1-1.5 2.1-3.3l2.5-4c.4-.4 1.6-2.3 2.6-4.2 2.3-4.4 2.7-5 3-5.3.3-.3 2.1-4 3.4-6.8a18 18 0 0 1 1.3-2.8c.4-.3 2-3.6 2.4-4.8.8-2.5 2.4-6.6 2.7-6.8.2-.1 1.4-3.2 2.5-6.8l2.4-6.8c.3-.2.3-.3 2.4-8.2a148.4 148.4 0 0 0 2.8-12.2c.3-.2.7-2.8 1.8-9.8 2.4-15.4 2.5-40.9.4-57a87.1 87.1 0 0 0-2.8-14.3 182 182 0 0 0-24.4-61.9c-.5-.5-3.8-6.2-3.8-6.6 0-.2-.4-.6-.8-1-.4-.2-1.4-1.4-2-2.6-1.5-2.3-3-4.6-4-5.6l-2.3-3a85.4 85.4 0 0 0-5.7-7.1 162.4 162.4 0 0 1-6.3-6.8c-2.9-3.3-3-3.4-7.5-7.7A116.6 116.6 0 0 0 325.6 45a34.8 34.8 0 0 0-6.4-5c0-.3-3.3-2.8-4.8-3.5-.6-.3-1.8-1.2-2.6-2a7.7 7.7 0 0 0-1.9-1.3c-.1 0-1.3-.6-2.5-1.4-1.2-.8-2.3-1.4-2.6-1.4-.2 0-.4-.2-.4-.4s-1-1-2.3-1.6l-6.7-3.8a83.3 83.3 0 0 0-9.2-4.8c-.4-.4-4-2-8.8-3.8-1.3-.5-2.5-1-2.6-1.2-.4-.5-3.2-1.5-7.8-3-2.6-.8-4.9-1.7-5-1.9-.2-.2-2-.8-4-1.3a7689.7 7689.7 0 0 1-16.3-4.3L234.4 3c-3.2-.6-9.1-1.3-13.2-1.7l-10.3-1-2.9-.2-.2 1.4-1.8 14.8a227.7 227.7 0 0 1-5.2 29c-1 4.8-2.6 11-3.4 13.2l-2.8 9.7c-1.3 4.5-2.5 8.8-2.8 9.4-6 14.3-3.7 33.2 6 50.6l1.8 3.6c0 .2 7.4 12.5 8.1 13.4.5.7 2.3.8 40.7.9 36.6 0 40.6.1 44.4.8a64.1 64.1 0 0 1 53.9 65.2c-.7 17-1 21.4-1.8 25.4a48.9 48.9 0 0 1-4.1 12.6 64.8 64.8 0 0 1-69.5 37.7 65.4 65.4 0 0 1-42.7-27.8 23.2 23.2 0 0 0-2.5-3.4h-26.3l-26-.1-2.4 3.7c-19.6 29.5-62.7 37.5-90 16.8l-2.9-2.1a66.3 66.3 0 0 1-23.2-37.3c-1.2-5.7-1.5-23.8-.5-34.1a64.6 64.6 0 0 1 48.6-55.5c8.7-2 9-2 51.4-2 29.6 0 39.8-.1 39.7-.5A177.2 177.2 0 0 1 180 116c-4.9-15.1-4.2-25.3 3.4-50.2 7-23 10.6-40.9 12.7-62.9l.3-2.9h-2.8l-7.8.4" fill="#ec3c4c"/><path d="M196.2 2.9a307.9 307.9 0 0 1-12.7 62.9c-10.2 33.6-8.3 48.3 10 78l1.3 2.2h13c0-.1-1.4-2.7-3.3-5.8a242.5 242.5 0 0 1-7.7-13.6c-8.7-15.6-10.7-35.2-5-48.9l2.8-9.4 2.8-9.7a167.1 167.1 0 0 0 5-20.4c1.2-5 2.7-14 3.6-21.8.7-6.3 1.3-10.7 1.9-14.9L208 0h-11.6l-.3 2.9m87 158.7c-16.3 2.5-17.6 28-1.7 32.6 6.8 2 15.4-2.6 17.5-9.2 4.1-12.7-4.3-25-15.8-23.4m-169.4 8.5c-6.6 2.7-7.5 4.9-7.7 18.4l-.2 10.3H96c-11.3 0-12.5.3-15.4 3.2-4.9 5-4.3 18.4 1 22 3 2.1 3.3 2.2 14.1 2.4l10.2.2.2 10.4c.2 11.8.3 12.1 3.6 15.4 4.3 4.3 12.3 4 15.7-.5 3-4 3-3.6 3-19.4l.1-6 10.5-.2c11.8-.1 12.8-.3 15.5-3.4 2.4-2.7 2.8-4.1 2.8-9.9 0-7.5-1-10.1-5.4-12.8l-2-1.2-10.7-.2-10.8-.2v-5c.2-15.7-1-20-6.4-22.9-2-1-6.4-1.3-8.1-.6m136 22.9c-12.5 5.2-12.6 26.2 0 31 12.4 4.6 23.2-6.7 19.6-20.8A14.7 14.7 0 0 0 250 193m60.6-.2c-13.1 4.8-13.6 26.2-.7 31.2 10.6 4.1 20-3.1 20-15.4 0-12.1-9.1-19.6-19.3-15.8M283 222c-14.3 2.4-17.5 24.4-4.5 31.3a15 15 0 0 0 20.3-6.9 29 29 0 0 0-.2-16c-3-6-9.3-9.4-15.6-8.4" fill="#2e2d2d"/><path d="m112.8 146.6-3.6.6a64.4 64.4 0 0 0-50.9 85.2A64.3 64.3 0 0 0 174 243.2c0-.3 9-.4 26.5-.4H227l1.9 3A64.3 64.3 0 0 0 342.8 233c1.4-3 3.1-11.5 3.6-17.4a64 64 0 0 0-57-68.8c-3.2-.3-174.8-.5-176.6-.2m178.5 15.9c11.8 5.4 12 27.6.1 32.7-11.7 5-21-2.5-21-17.2 0-12.7 10.3-20.3 20.9-15.5m-169.1 8c1.7 1 4 3.3 5.2 5.4.7 1.4.8 2.4 1 12v10.5h9.6c12.6 0 15.1.8 18.2 5.8l1.2 2v16.4l-1.4 2.5c-2.8 5.2-4.3 5.7-17.4 5.7h-10.2v8.1c-.1 11.2-.2 12.3-1 14a11 11 0 0 1-20.2.8c-1-2-1-2.8-1.4-14.4l-.3-8.5h-9.9c-16.2 0-18.4-1.9-18.5-16-.1-9.7.9-12.2 5.8-14.9l2.5-1.3 10-.1 10-.2.3-9.8c.3-11.3.6-12.5 3.2-15.4 3-3.4 9-4.5 13.3-2.5m139 22.3a15 15 0 0 1 7.3 7l1.3 2.7v6.4c0 11.5-4.4 17.2-13.9 17.7-9.8.6-15.5-6-15.5-18.1 0-13 10.4-20.8 20.9-15.7m60 0c7.6 3.5 11 13.4 7.9 23.7-4.2 14.1-24.8 13.4-28.2-1-3.8-16 7.4-28.6 20.3-22.7m-30.9 29.5c6.9 2.6 9.7 7.4 9.7 16.6 0 11.5-5.3 17.8-15 17.8-9 0-14.7-7-14.7-18.3 0-12 9.8-20 20-16.1" fill="#f3f3f3"/><path d="M188.9.3h1.4c.4-.1 0-.2-.7-.2-.8 0-1 0-.7.2m20 0h1.4c.4-.1 0-.2-.7-.2-.8 0-1 0-.7.2m-82.4 146h2c.5-.1 0-.2-1.1-.2s-1.5 0-.9.2m5.2 0h2c.5-.1 0-.2-1.1-.2s-1.5 0-.9.2m5.2 0h2c.5-.1 0-.2-1.1-.2s-1.5 0-.9.2m4 0h2c.5-.1 0-.2-1.1-.2s-1.5 0-.9.2m5.2 0h2c.5-.1 0-.2-1.1-.2s-1.5 0-.9.2m5.2 0h2c.5-.1 0-.2-1.1-.2s-1.5 0-.9.2m5.2 0h2c.5-.1 0-.2-1.1-.2s-1.5 0-.9.2m5.2 0h2c.5-.1 0-.2-1.1-.2s-1.5 0-.9.2m5.2 0h2c.5-.1 0-.2-1.1-.2s-1.5 0-.9.2m4 0h2c.5-.1 0-.2-1.1-.2s-1.5 0-.9.2m5.2 0h2c.5-.1 0-.2-1.1-.2s-1.5 0-.9.2m5.2 0h2c.5-.1 0-.2-1.1-.2s-1.5 0-.9.2m5.2 0h2c.5-.1 0-.2-1.1-.2s-1.5 0-.9.2m4.8 0h2c.5-.1 0-.2-1.1-.2s-1.5 0-.9.2m16.3 0c0 .2.5.3 1 .2l1-.3c0-.1-.4-.2-1-.2-.5 0-1 .2-1 .3m3.3 0h2c.5-.1 0-.2-1.1-.2s-1.5 0-.9.2m5.2 0h2c.5-.1 0-.2-1.1-.2s-1.5 0-.9.2m5.2 0h2c.5-.1 0-.2-1.1-.2s-1.5 0-.9.2m5.2 0h2c.5-.1 0-.2-1.1-.2s-1.5 0-.9.2m5.2 0h2c.5-.1 0-.2-1.1-.2s-1.5 0-.9.2m5.2 0h2c.5-.1 0-.2-1.1-.2s-1.5 0-.9.2m4 0h2c.5-.1 0-.2-1.1-.2s-1.5 0-.9.2m5.2 0h2c.5-.1 0-.2-1.1-.2s-1.5 0-.9.2m5.2 0h2c.5-.1 0-.2-1.1-.2s-1.5 0-.9.2m5.2 0h2c.5-.1 0-.2-1.1-.2s-1.5 0-.9.2m5.2 0h2c.5-.1 0-.2-1.1-.2s-1.5 0-.9.2m5.2 0h2c.5-.1 0-.2-1.1-.2s-1.5 0-.9.2m4 0h2c.5-.1 0-.2-1.1-.2s-1.5 0-.9.2m6.4 0h4.4c1.2 0 .1-.2-2.3-.2s-3.4.1-2 .2m10.5.4h1.6c.4-.1 0-.2-.9-.2s-1.2 0-.7.2M81.8 157.8l-1.2 1 1.3-.8 1.3-1c0-.3-.2-.2-1.4.8m203.9 3.7h1.4c.4-.1 0-.2-.7-.2-.8 0-1 0-.7.2m4.4.9 3.2 1.6c1 .8 1.2.8.7.2-.7-.8-4.3-2.6-5.2-2.6-.3 0 .2.4 1.3.8m37.3 2.4 3.4 3.2a32 32 0 0 0-3-3.2 40.7 40.7 0 0 0-3.4-3.2 32 32 0 0 0 3 3.2m-48.9-2a6 6 0 0 0-2 1.3c-.2.4-.1.4.3 0l2.4-1.3c1-.4 1.6-.8 1.4-.8l-2 .8m-205.8 2.7-2.6 2.7 2.7-2.6a47.5 47.5 0 0 0-.1-.1m201.7.2c-1.4 1.5-2.9 3.7-2.9 4.2 0 .1.5-.4 1-1.3l2.3-2.9c.7-.7 1.2-1.3 1-1.3l-1.4 1.3m21.2.1c.6.7 1.5 2 2 3 .6 1 1 1.6 1.1 1.4 0-.7-2.2-4-3.2-4.8-.9-.7-.9-.6 0 .4M111 171.2c-2 1.2-5.1 5.6-4.5 6.3l.7-1.2a15 15 0 0 1 4.6-5.4c.4-.2.7-.5.6-.5-.1 0-.8.3-1.4.8m159.8.7c-.2.8-.4 2-.4 2.7 0 .9.2.7.4-.7l.6-2.7c.1-.4.2-.8 0-.8l-.6 1.5m-146.1 1c2.6 2.7 3 4 3.3 9.1l.3 4.6V182c-.1-3.7-.3-4.9-1-6-.7-1.6-3.5-4.8-4-4.8-.1 0 .5.8 1.4 1.7M271 185.4c1.5 10.6 16 14.8 24.1 7.1 2.5-2.3 5.1-7.5 4.3-8.4-.2 0-.4.6-.7 1.5-.7 2.5-5 6.8-8.2 8-7.8 3-16.5-.9-19.3-8.6-.5-1.1-.5-1.1-.2.4m-165.5 6.2v6.8l-9.5.1-9.5.1 9.7.1 9.7.1v-7c0-3.9 0-7-.2-7-.1 0-.2 3-.2 6.8M.1 190.8c0 1 0 1.4.2.9v-1.8c-.1-.5-.2 0-.2.9m253.6 1c.8.2 2.2.2 3 0h-3m56.7.6c-1.2.4-2.3 1-2.6 1.2-.2.3.5 0 1.6-.4 1.2-.5 3.4-1 5.4-1.2l3.4-.3h-2.8a14 14 0 0 0-5 .7m-61.4.6c-3.4 1.5-6.8 5.1-7.6 7.8-.1.6.1.4.6-.5 1.9-3.7 4.1-5.8 7.9-7.3 1.3-.6 2-1 1.7-1-.3 0-1.5.4-2.6 1m9.8-.7a62.6 62.6 0 0 1 4 1.5 11 11 0 0 0-4-1.8c-.5 0-.5 0 0 .3m61.6.6c4 1.7 6 3.5 8 7.3.7 1.3 1.1 2 1 1.4-1.1-4-7.4-9.6-10.6-9.6-.3 0 .4.4 1.6 1m-54.8 3.2a48.6 48.6 0 0 1 2.1 2.3c-.4-.7-1.3-1.9-2-2.6l-1.5-1.3 1.4 1.6m36.7 3c-.6 1-1.1 2.2-1 2.5 0 .3.3-.3.7-1.3.5-1 1.1-2.1 1.5-2.5.3-.4.4-.7.2-.7s-.9.9-1.4 2M128 198c.1.5 1.6.6 10.1.6h10l-9.8-.1a37 37 0 0 1-10.1-.6c-.3-.4-.3-.3-.2.1m-47.9 3.8c-1.5 1.7-3 4.6-3 5.9 0 .7.1.7.4-.3.5-2 1.6-4 3-5.6.9-.8 1.4-1.4 1.3-1.4-.2 0-.9.6-1.7 1.4m74.1.3c4.2 4.9 4.2 16.2.1 20.8-2.7 3-3.6 3.3-15.5 3.4l-10.5.1v4.4h10.2c13 0 14.6-.5 17.4-5.7l1.4-2.5v-8.2c0-9-.3-10.2-3.2-12.8-1-1-1-.9.1.5m86.4.8c-.2.5-.3 2.3-.2 3.9v3l.3-3.8c.3-4 .3-4.6-.1-3.1m59.8 4.1c0 1.8.1 2.4.2 1.5v-3.2c0-.8-.2 0-.2 1.7m46-.6c0 1 0 1.4.2.9v-1.8c-.1-.5-.2 0-.2.9M54.3 216.8c-.5 15.5.4 21.6 4.2 31.2a65.6 65.6 0 0 0 22.8 29c27.4 20.8 70.5 12.8 90.1-16.7l2.5-3.7h26l26.2.1 2.5 3.4a64.2 64.2 0 0 0 117.4-34v-4.7l-1.2 4.8a51 51 0 0 1-2 6.8 64.3 64.3 0 0 1-113.9 12.7l-1.9-2.9h-26.5c-17.5 0-26.5.1-26.5.4a64.3 64.3 0 0 1-115.7-10.8c-2.8-8-3.1-10-3.5-19.4l-.2-7.2-.3 11M0 208c0 1 0 1.4.2.9v-1.8c-.1-.5-.2 0-.2.9m76.9 5.3v3.3l.3-2.5a8 8 0 0 0 0-3.3c-.2-.6-.3.2-.3 2.5m223.5-.9c0 .8 0 1 .2.7v-1.4c-.1-.4-.2 0-.2.7m46 2.2c0 1.1.1 1.5.2.9v-2c-.1-.5-.2 0-.2 1.1m-45.5.8c2 13.7 23.7 15.4 27.9 2.2.9-2.7.7-3-.5-.6-5.3 11-22.2 10.3-26.7-1-.9-2.1-1-2.1-.7-.6m-60 .4c1.9 10.8 17.3 14.8 25 6.3 1.8-2 3.6-5.6 3.6-7.2 0-.4-.3 0-.7 1-4 11.5-21.3 12-27 .8-1.1-2.4-1.1-2.4-.9-.9m-163.8 3.6c0 5 2.5 8.9 6.9 10.7 1.5.6 3.1.7 11.6.7h9.9l.1 4.9c0 3 .1 2.2.1-2.1v-7l-10.2-.2a70 70 0 0 1-11.3-.7 11 11 0 0 1-6.7-7.6c-.3-1.4-.3-1.3-.4 1.3m203 3-2.4 1.2c-.2.2.5 0 1.5-.4 1.1-.5 2.8-1 3.8-1.2 1.7-.3 1.8-.3.5-.3-.8 0-2.3.3-3.4.7m7.6-.4c1 .2 3 1 4.4 1.6 1.5.8 2 1 1.4.4-1.4-1.1-5-2.4-6.5-2.4-1 0-.9.2.7.4m9 5.3 1.5 1.9c.3 0-.7-1.4-1.7-2.6-.8-1-.7-.7.2.7m-25.2 3.3-.7 2.4c0 .7.2.2.6-1a8 8 0 0 0 .7-2.4c-.1 0-.4.4-.6 1m-1 8a40 40 0 0 0 .1-2.3c0-1.2-.2-.1-.1 2.3m29 5.3c-.1 2.8-4.1 7.7-7.6 9.5-7 3.6-15.2 1-19.4-6-1.3-2.2-1.4-2.3-1.2-1 1.5 7.6 10.9 12.3 18.8 9.6 5.2-1.8 10.4-8.4 9.7-12.2-.2-.8-.2-.8-.2.1m-193.5 5a11 11 0 0 0 22 1.4c.3-2.2-.2-2.9-1-1.2-5 9.3-18.3 8.2-20.8-1.8-.3-1.2-.3-1-.2 1.5" fill="#c4bc9c"/></g></svg>